<?xml version="1.0" standalone="no"?><!DOCTYPE svg PUBLIC "-//W3C//DTD SVG 1.1//EN" "http://www.w3.org/Graphics/SVG/1.1/DTD/svg11.dtd"><svg t="1773890503922" class="icon" viewBox="0 0 1024 1024" version="1.1" xmlns="http://www.w3.org/2000/svg" p-id="12875" xmlns:xlink="http://www.w3.org/1999/xlink" width="64" height="64"><path d="M892.893867 556.817067a63.368533 63.368533 0 0 1 0-89.617067l78.421333-78.421333a63.368533 63.368533 0 0 0 0-89.617067L724.855467 52.701867a63.368533 63.368533 0 0 0-89.617067 0l-78.421333 78.421333a63.368533 63.368533 0 0 1-89.617067 0L388.778667 52.701867a63.368533 63.368533 0 0 0-89.617067 0L52.701867 299.144533a63.368533 63.368533 0 0 0 0 89.617067l78.421333 78.421333a63.368533 63.368533 0 0 1 0 89.617067L52.701867 635.221333a63.368533 63.368533 0 0 0 0 89.617067l246.459733 246.459733a63.368533 63.368533 0 0 0 89.617067 0l78.421333-78.421333a63.368533 63.368533 0 0 1 89.617067 0l78.421333 78.421333a63.368533 63.368533 0 0 0 89.617067 0l246.459733-246.459733a63.368533 63.368533 0 0 0 0-89.617067l-78.421333-78.404266zM708.266667 546.133333H580.266667a34.133333 34.133333 0 0 0-34.133334 34.133334v119.466666a34.133333 34.133333 0 1 1-68.266666 0v-119.466666a34.133333 34.133333 0 0 0-34.133334-34.133334h-128a34.133333 34.133333 0 1 1 0-68.266666H443.733333a34.133333 34.133333 0 0 0 34.133334-34.133334v-119.466666a34.133333 34.133333 0 1 1 68.266666 0v119.466666a34.133333 34.133333 0 0 0 34.133334 34.133334h128a34.133333 34.133333 0 1 1 0 68.266666z" fill="#4f46E5" p-id="12876"></path></svg>